<svg xmlns="http://www.w3.org/2000/svg" width="80" height="56" fill="none" viewBox="0 0 80 56"><path fill="#00D6B9" d="M11 30.5C11 30.2239 11.2239 30 11.5 30H20.5C20.7761 30 21 30.2239 21 30.5V37H11V30.5Z"/><path fill="#3370FF" d="M11 38H21V48.5C21 48.7761 20.7761 49 20.5 49H11.5C11.2239 49 11 48.7761 11 48.5V38Z"/><path fill="#00D6B9" d="M27 4.5C27 4.22386 27.2239 4 27.5 4H36.5C36.7761 4 37 4.22386 37 4.5V16H27V4.5Z"/><path fill="#3370FF" d="M27 17H37V48.5C37 48.7761 36.7761 49 36.5 49H27.5C27.2239 49 27 48.7761 27 48.5V17Z"/><path fill="#00D6B9" d="M43 19.5C43 19.2239 43.2239 19 43.5 19H52.5C52.7761 19 53 19.2239 53 19.5V31H43V19.5Z"/><path fill="#3370FF" d="M43 32H53V48.5C53 48.7761 52.7761 49 52.5 49H43.5C43.2239 49 43 48.7761 43 48.5V32Z"/><path fill="#00D6B9" d="M59 36.5C59 36.2239 59.2239 36 59.5 36H68.5C68.7761 36 69 36.2239 69 36.5V41H59V36.5Z"/><path fill="#3370FF" d="M59 42H69V48.5C69 48.7761 68.7761 49 68.5 49H59.5C59.2239 49 59 48.7761 59 48.5V42Z"/><path fill="#DEE0E3" fill-rule="evenodd" d="M5 51H76L76 54H4V51H5Z" clip-rule="evenodd"/></svg>