<svg xmlns="http://www.w3.org/2000/svg" width="126" height="125" fill="none" viewBox="0 0 126 125"><path fill="#D6DAE1" fill-rule="evenodd" d="M30.2978 13.9995H102.702C105.904 13.9995 108.5 16.5805 108.5 19.7642V83.9427L83.775 109.467H30.2978C27.0957 109.467 24.5 106.886 24.5 103.702V19.7642C24.5 16.5805 27.0957 13.9995 30.2978 13.9995Z" clip-rule="evenodd"/><path fill="#B5BEC8" fill-rule="evenodd" d="M83.7749 109.426V85.8234C83.7749 84.7622 84.6401 83.9019 85.7075 83.9019H108.5L83.7749 109.426Z" clip-rule="evenodd"/><rect width="25" height="32" x="76.188" y="21.999" fill="#F4F5F9" rx="2"/><rect width="32.25" height="5" x="32.1" y="22.054" fill="#F4F5F9" rx="1"/><rect width="32.25" height="5" x="32.1" y="31.641" fill="#F4F5F9" rx="1"/><rect width="16.125" height="5" x="32.1" y="41.641" fill="#F4F5F9" rx="1"/><rect width="68.8" height="5" x="32.1" y="68.923" fill="#F4F5F9" rx="1"/><rect width="68.8" height="5" x="32.1" y="76.38" fill="#F4F5F9" rx="1"/><path fill="#fff" fill-rule="evenodd" d="M50.2158 54.1396C38.7749 54.1396 29.5002 63.4602 29.5002 74.9577C29.5002 86.4552 38.7749 95.7758 50.2158 95.7758C53.0012 95.7758 55.6583 95.2233 58.0843 94.2214L68.8536 110.371L74.4055 106.63L63.7784 90.6942C68.16 86.877 70.9313 81.2426 70.9313 74.9577C70.9313 63.4602 61.6567 54.1396 50.2158 54.1396ZM50.2158 60.8555C57.9661 60.8555 64.2489 67.1694 64.2489 74.9581C64.2489 82.7467 57.9661 89.0606 50.2158 89.0606C42.4655 89.0606 36.1827 82.7467 36.1827 74.9581C36.1827 67.1694 42.4655 60.8555 50.2158 60.8555Z" clip-rule="evenodd"/><path fill="#1F2329" d="M25.1083 59.9895L24.6889 60.9687L15.4748 57.0168L15.8942 56.0377L25.1083 59.9895Z"/><path fill="#1F2329" d="M30.1257 56.5756L29.3071 57.2573L21.3806 47.733L22.1992 47.0513L30.1257 56.5756Z"/><path fill="#1F2329" d="M25.2771 65.653L25.3153 66.719L12.6962 67.1485L12.658 66.0825L25.2771 65.653Z"/></svg>