<svg xmlns="http://www.w3.org/2000/svg" xmlns:xlink="http://www.w3.org/1999/xlink" width="200" height="200" class="icon" p-id="3689" t="1682495427436" version="1.1" viewBox="0 0 1024 1024"><path d="M672 288H352c-9.6 0-16 3.2-22.4 9.6-6.4 6.4-9.6 12.8-9.6 22.4v64c0 19.2 12.8 32 32 32s32-16 32-32v-32h96v320h-32c-16 0-32 12.8-32 32s12.8 32 32 32h128c16 0 32-12.8 32-32s-12.8-32-32-32h-32V352h96v32c0 19.2 12.8 32 32 32s32-16 32-32v-64c0-9.6-3.2-16-9.6-22.4-6.4-6.4-12.8-9.6-22.4-9.6z" data-spm-anchor-id="a313x.7781069.0.i4" p-id="3690"/><path d="M896 128H128c-35.2 0-64 28.8-64 64v640c0 35.2 28.8 64 64 64h768c35.2 0 64-28.8 64-64V192c0-35.2-28.8-64-64-64z m0 672c0 16-12.8 32-32 32H160c-19.2 0-32-16-32-32V224c0-16 12.8-32 32-32h704c19.2 0 32 16 32 32v576z" data-spm-anchor-id="a313x.7781069.0.i1" p-id="3691"/></svg>