<svg xmlns="http://www.w3.org/2000/svg" width="1285" height="1024" class="icon" p-id="2359" t="1621433305409" version="1.1"><defs><filter id="svg_4_blur"><feGaussianBlur in="SourceGraphic" stdDeviation="0"/></filter></defs><g><title>Layer 1</title><path id="svg_1" fill="#0069F6" d="m100.39216,70.27451a30.11765,30.11765 0 0 0 -30.11765,30.11765l0,823.21568a30.11765,30.11765 0 0 0 30.11765,30.11765l1084.23529,0a30.11765,30.11765 0 0 0 30.11765,-30.11765l0,-823.21568a30.11765,30.11765 0 0 0 -30.11765,-30.11765l-1084.23529,0zm0,-60.23529l1084.23529,0a90.35294,90.35294 0 0 1 90.35294,90.35294l0,823.21568a90.35294,90.35294 0 0 1 -90.35294,90.35294l-1084.23529,0a90.35294,90.35294 0 0 1 -90.35294,-90.35294l0,-823.21568a90.35294,90.35294 0 0 1 90.35294,-90.35294z" p-id="2360"/><path id="svg_2" fill="#5ED7BC" d="m261.01961,261.01961m-60.2353,0a60.23529,60.23529 0 1 0 120.47059,0a60.23529,60.23529 0 1 0 -120.47059,0z" p-id="2361"/><path id="svg_3" fill="#5ED7BC" d="m331.29412,839.47922a30.11765,30.11765 0 0 1 -60.2353,0a189.94196,189.94196 0 0 1 189.94196,-189.94197l186.58887,0a102.46023,102.46023 0 0 0 98.4847,-130.71058a162.69553,162.69553 0 0 1 156.37083,-207.61098l241.14196,0a30.11765,30.11765 0 0 1 0,60.23529l-241.14196,0a102.46023,102.46023 0 0 0 -98.46463,130.73067a162.69553,162.69553 0 0 1 -156.3909,207.61098l-186.58887,0a129.70667,129.70667 0 0 0 -129.70666,129.70666l0,-0.02007z" p-id="2362"/><rect id="svg_8" width="508" height="760" x="689.5" y="187" fill="#000" stroke="null"/><rect id="svg_4" width="430" height="669.667" x="728.167" y="232" fill="#56ffff" stroke="null" filter="url(#svg_4_blur)" rx="5"/><line id="svg_5" x1="559.167" x2="754.167" y1="393" y2="393" fill="none" stroke="null"/><ellipse id="svg_6" cx="952.167" cy="823.833" fill="#000" stroke="null" rx="66.333" ry="65.5"/><rect id="svg_7" width="187.333" height="47.667" x="863.5" y="242.667" fill="#000" stroke="null"/><path id="svg_9" fill="#f90c0c" stroke="#000" d="m484.77374,100.01227c-214.68812,0.09178 -388.6733,173.5038 -388.76538,387.51529c0,214.01148 174.04656,387.4235 388.76538,387.48469c214.68812,-0.06119 388.6733,-173.47321 388.73469,-387.4541c-0.0307,-214.04208 -174.01587,-387.54588 -388.73469,-387.54588zm296.61586,387.51529c-0.09209,59.44593 -17.89579,114.66977 -48.16209,161.05167l-410.03774,-408.62578c46.50451,-30.22778 101.91086,-48.00343 161.61467,-48.12581c163.79409,0.33654 296.3089,132.44542 296.58517,295.69992l-0.00001,0zm-593.29312,0c0.12278,-59.44593 17.92649,-114.73096 48.28488,-161.11286l409.94565,408.65638c-46.5352,30.16659 -101.91086,47.91165 -161.58397,48.00343c-163.76339,-0.15297 -296.3089,-132.29244 -296.64656,-295.54695z"/></g></svg>