<svg xmlns="http://www.w3.org/2000/svg" width="1285" height="1024" class="icon" p-id="2359" t="1621433305409" version="1.1"><defs><filter id="svg_4_blur"><feGaussianBlur in="SourceGraphic" stdDeviation="0"/></filter></defs><g><title>Layer 1</title><path id="svg_1" fill="#0069F6" d="m100.39216,70.27451a30.11765,30.11765 0 0 0 -30.11765,30.11765l0,823.21568a30.11765,30.11765 0 0 0 30.11765,30.11765l1084.23529,0a30.11765,30.11765 0 0 0 30.11765,-30.11765l0,-823.21568a30.11765,30.11765 0 0 0 -30.11765,-30.11765l-1084.23529,0zm0,-60.23529l1084.23529,0a90.35294,90.35294 0 0 1 90.35294,90.35294l0,823.21568a90.35294,90.35294 0 0 1 -90.35294,90.35294l-1084.23529,0a90.35294,90.35294 0 0 1 -90.35294,-90.35294l0,-823.21568a90.35294,90.35294 0 0 1 90.35294,-90.35294z" p-id="2360"/><path id="svg_2" fill="#5ED7BC" d="m261.01961,261.01961m-60.2353,0a60.23529,60.23529 0 1 0 120.47059,0a60.23529,60.23529 0 1 0 -120.47059,0z" p-id="2361"/><path id="svg_3" fill="#5ED7BC" d="m331.29412,839.47922a30.11765,30.11765 0 0 1 -60.2353,0a189.94196,189.94196 0 0 1 189.94196,-189.94197l186.58887,0a102.46023,102.46023 0 0 0 98.4847,-130.71058a162.69553,162.69553 0 0 1 156.37083,-207.61098l241.14196,0a30.11765,30.11765 0 0 1 0,60.23529l-241.14196,0a102.46023,102.46023 0 0 0 -98.46463,130.73067a162.69553,162.69553 0 0 1 -156.3909,207.61098l-186.58887,0a129.70667,129.70667 0 0 0 -129.70666,129.70666l0,-0.02007z" p-id="2362"/><rect id="svg_8" width="508" height="760" x="689.5" y="187" fill="#000" stroke="null"/><rect id="svg_4" width="430" height="669.667" x="728.167" y="232" fill="#56ffff" stroke="null" filter="url(#svg_4_blur)" rx="5"/><line id="svg_5" x1="559.167" x2="754.167" y1="393" y2="393" fill="none" stroke="null"/><ellipse id="svg_6" cx="952.167" cy="823.833" fill="#000" stroke="null" rx="66.333" ry="65.5"/><rect id="svg_7" width="187.333" height="47.667" x="863.5" y="242.667" fill="#000" stroke="null"/></g></svg>