<svg xmlns="http://www.w3.org/2000/svg" width="32" height="32" fill="none" viewBox="0 0 32 32"><g clip-path="url(#clip0_15596_2622)"><path fill="#8087E8" d="M19.5408 1L14.2608 13.3298L7.323 29.5316L23.4547 22.717L31.9995 19.108L19.5408 1Z"/><path fill="#30426B" d="M22.231 15.9258L23.455 22.7163L31.9997 19.1072L22.231 15.9258Z"/><path fill="#6699A1" d="M19.5409 1L22.2312 15.927L31.9996 19.108L19.5409 1Z"/><path fill="#78758C" d="M22.2314 15.9292L32.0002 19.1107L14.2615 13.332L7.32324 29.5343L23.4554 22.7198L22.2314 15.9292Z"/><path fill="#A3EDBA" d="M7.32306 29.5308L14.2608 13.329L0 8.68359L7.32306 29.5308Z"/><path fill="#6699A1" d="M23.4551 22.7185L25.0197 31.3954L31.9998 19.1094L23.4551 22.7185Z"/><path fill="#8087E8" d="M19.5409 1L14.2608 13.3298L22.2312 15.927L19.5409 1Z"/></g><defs><clipPath id="clip0_15596_2622"><rect width="32" height="32" fill="#fff"/></clipPath></defs></svg>