<svg xmlns="http://www.w3.org/2000/svg" width="80" height="56" fill="none" viewBox="0 0 80 56"><path fill="#3370FF" d="M13 7.16602C13 6.88987 13.2239 6.66602 13.5 6.66602H65.8333C66.1095 6.66602 66.3333 6.88987 66.3333 7.16602V17.3327H13V7.16602Z"/><path fill="#1F4399" d="M29 20H13V28H29V20Z"/><path fill="#1F4399" d="M47.6667 20H31.6667V28H47.6667V20Z"/><path fill="#1F4399" d="M66.3333 20H50.3333V28H66.3333V20Z"/><path fill="#1F4399" d="M29 41.3333H13V48C13 48.7364 13.597 49.3333 14.3333 49.3333H29V41.3333Z"/><path fill="#1F4399" d="M47.6667 41.3333H31.6667V49.3333H47.6667V41.3333Z"/><path fill="#1F4399" d="M66.3333 41.3333H50.3333V49.3333H65C65.7364 49.3333 66.3333 48.7364 66.3333 48V41.3333Z"/><path fill="#1F4399" d="M29 30.6667H13V38.6667H29V30.6667Z"/><path fill="#1F4399" d="M47.6667 30.6667H31.6667V38.6667H47.6667V30.6667Z"/><path fill="#1F4399" d="M66.3333 30.6667H50.3333V38.6667H66.3333V30.6667Z"/></svg>